<svg width="13" height="13" viewBox="0 0 13 13" fill="none" xmlns="http://www.w3.org/2000/svg">
<path d="M2.7749 10.0156C2.8042 10.0156 2.8335 10.0127 2.86279 10.0083L5.32666 9.57617C5.35596 9.57031 5.38379 9.55713 5.4043 9.53516L11.6138 3.32568C11.6273 3.31213 11.6381 3.29604 11.6455 3.27831C11.6528 3.26059 11.6566 3.2416 11.6566 3.22241C11.6566 3.20323 11.6528 3.18423 11.6455 3.16651C11.6381 3.14879 11.6273 3.13269 11.6138 3.11914L9.1792 0.683105C9.15137 0.655273 9.11475 0.640625 9.0752 0.640625C9.03564 0.640625 8.99902 0.655273 8.97119 0.683105L2.76172 6.89258C2.73975 6.91455 2.72656 6.94092 2.7207 6.97021L2.28857 9.43408C2.27432 9.51256 2.27942 9.59332 2.30341 9.66938C2.3274 9.74544 2.36957 9.81451 2.42627 9.87061C2.52295 9.96436 2.64453 10.0156 2.7749 10.0156ZM3.76221 7.46094L9.0752 2.14941L10.1489 3.22314L4.83594 8.53467L3.53369 8.76465L3.76221 7.46094ZM11.8906 11.2461H1.10938C0.850098 11.2461 0.640625 11.4556 0.640625 11.7148V12.2422C0.640625 12.3066 0.693359 12.3594 0.757812 12.3594H12.2422C12.3066 12.3594 12.3594 12.3066 12.3594 12.2422V11.7148C12.3594 11.4556 12.1499 11.2461 11.8906 11.2461Z" fill="#262626"/>
</svg>
