<svg width="11" height="11" viewBox="0 0 11 11" fill="none" xmlns="http://www.w3.org/2000/svg">
<path d="M10.7295 5.14551L5.19531 0.342285C5.15283 0.305664 5.09863 0.285156 5.0415 0.285156H3.74512C3.63672 0.285156 3.58691 0.419922 3.66895 0.490234L8.79883 4.94336H0.226562C0.162109 4.94336 0.109375 4.99609 0.109375 5.06055V5.93945C0.109375 6.00391 0.162109 6.05664 0.226562 6.05664H8.79736L3.66748 10.5098C3.58545 10.5815 3.63525 10.7148 3.74365 10.7148H5.08398C5.11182 10.7148 5.13965 10.7046 5.16016 10.6855L10.7295 5.85449C10.7802 5.8104 10.8209 5.75593 10.8487 5.69478C10.8766 5.63362 10.891 5.5672 10.891 5.5C10.891 5.4328 10.8766 5.36638 10.8487 5.30522C10.8209 5.24407 10.7802 5.1896 10.7295 5.14551Z" fill="#262626"/>
</svg>
