<svg width="22" height="22" viewBox="0 0 22 22" fill="none" xmlns="http://www.w3.org/2000/svg">
<path d="M14.9531 10.3125H11.6875V7.04688C11.6875 6.95234 11.6102 6.875 11.5156 6.875H10.4844C10.3898 6.875 10.3125 6.95234 10.3125 7.04688V10.3125H7.04688C6.95234 10.3125 6.875 10.3898 6.875 10.4844V11.5156C6.875 11.6102 6.95234 11.6875 7.04688 11.6875H10.3125V14.9531C10.3125 15.0477 10.3898 15.125 10.4844 15.125H11.5156C11.6102 15.125 11.6875 15.0477 11.6875 14.9531V11.6875H14.9531C15.0477 11.6875 15.125 11.6102 15.125 11.5156V10.4844C15.125 10.3898 15.0477 10.3125 14.9531 10.3125Z" fill="#262626"/>
<path d="M11 1.375C5.68477 1.375 1.375 5.68477 1.375 11C1.375 16.3152 5.68477 20.625 11 20.625C16.3152 20.625 20.625 16.3152 20.625 11C20.625 5.68477 16.3152 1.375 11 1.375ZM11 18.9922C6.58711 18.9922 3.00781 15.4129 3.00781 11C3.00781 6.58711 6.58711 3.00781 11 3.00781C15.4129 3.00781 18.9922 6.58711 18.9922 11C18.9922 15.4129 15.4129 18.9922 11 18.9922Z" fill="#262626"/>
</svg>
