<svg width="13" height="13" viewBox="0 0 13 13" fill="none" xmlns="http://www.w3.org/2000/svg">
<path d="M4.27344 1.69531H4.15625C4.2207 1.69531 4.27344 1.64258 4.27344 1.57812V1.69531H8.72656V1.57812C8.72656 1.64258 8.7793 1.69531 8.84375 1.69531H8.72656V2.75H9.78125V1.57812C9.78125 1.06104 9.36084 0.640625 8.84375 0.640625H4.15625C3.63916 0.640625 3.21875 1.06104 3.21875 1.57812V2.75H4.27344V1.69531ZM11.6562 2.75H1.34375C1.08447 2.75 0.875 2.95947 0.875 3.21875V3.6875C0.875 3.75195 0.927734 3.80469 0.992188 3.80469H1.87695L2.23877 11.4658C2.26221 11.9653 2.67529 12.3594 3.1748 12.3594H9.8252C10.3262 12.3594 10.7378 11.9668 10.7612 11.4658L11.123 3.80469H12.0078C12.0723 3.80469 12.125 3.75195 12.125 3.6875V3.21875C12.125 2.95947 11.9155 2.75 11.6562 2.75ZM9.7124 11.3047H3.2876L2.93311 3.80469H10.0669L9.7124 11.3047Z" fill="#262626"/>
</svg>
